<svg xmlns="http://www.w3.org/2000/svg" width="1200" height="1200" viewBox="0 0 1200 1200">
  <defs>
    <linearGradient id="bg" x1="0" x2="1" y1="0" y2="1">
      <stop offset="0" stop-color="#101113"/>
      <stop offset="0.55" stop-color="#191B1F"/>
      <stop offset="1" stop-color="#1F1725"/>
    </linearGradient>
    <pattern id="grid" width="46" height="46" patternUnits="userSpaceOnUse">
      <path d="M 46 0 L 0 0 0 46" fill="none" stroke="#FFFFFF" stroke-opacity="0.05" stroke-width="1"/>
    </pattern>
    <filter id="glow" x="-25%" y="-25%" width="150%" height="150%">
      <feGaussianBlur stdDeviation="16" result="blur"/>
      <feMerge>
        <feMergeNode in="blur"/>
        <feMergeNode in="SourceGraphic"/>
      </feMerge>
    </filter>
  </defs>
  <rect width="1200" height="1200" fill="url(#bg)"/>
  <rect width="1200" height="1200" fill="url(#grid)"/>
  <path d="M113 786 C258 621 366 754 486 608 C612 455 771 556 1079 294" fill="none" stroke="#63F1B5" stroke-width="28" stroke-linecap="round" opacity="0.24"/>
  <polyline points="126,752 242,681 358,713 474,588 590,614 706,464 822,508 938,351 1054,297" fill="none" stroke="#F8D35A" stroke-width="8" stroke-linecap="round" stroke-linejoin="round" filter="url(#glow)"/>
  <rect x="72" y="76" width="1056" height="1048" rx="34" fill="none" stroke="#FFFFFF" stroke-opacity="0.14" stroke-width="2"/>
  <rect x="116" y="118" width="294" height="54" rx="12" fill="#FFFFFF" fill-opacity="0.08" stroke="#FFFFFF" stroke-opacity="0.12"/>
  <text x="144" y="153" font-family="Inter, Arial, sans-serif" font-size="24" font-weight="800" fill="#63F1B5">SLAPR.AI</text>
  <text x="930" y="153" text-anchor="end" font-family="Inter, Arial, sans-serif" font-size="22" font-weight="700" fill="#FFFFFF" fill-opacity="0.72">IMAGE DROP</text>
  <circle cx="914" cy="312" r="152" fill="#63F1B5" opacity="0.14"/>
  <circle cx="914" cy="312" r="94" fill="none" stroke="#63F1B5" stroke-width="4" opacity="0.75"/>
  <circle cx="914" cy="312" r="55" fill="#101113" stroke="#F8D35A" stroke-width="6"/>
  <text x="914" y="331" text-anchor="middle" font-family="Inter, Arial, sans-serif" font-size="48" font-weight="800" fill="#F8D35A">$</text>
  <text x="116" y="322" font-family="Inter, Arial, sans-serif" font-size="122" font-weight="900" fill="#FFFFFF">SLAPR</text>
  <rect x="120" y="382" width="210" height="42" rx="8" fill="#F8D35A" fill-opacity="0.95"/>
  <text x="144" y="410" font-family="Inter, Arial, sans-serif" font-size="20" font-weight="900" fill="#101113">MEME TERMINAL</text>
  <text x="120" y="535" font-family="Inter, Arial, sans-serif" font-size="48" font-weight="800" fill="#FFFFFF">Turn crypto ideas into</text>
  <text x="120" y="599" font-family="Inter, Arial, sans-serif" font-size="48" font-weight="800" fill="#FFFFFF">social-ready visuals.</text>
  <g transform="translate(120 836)">
    <rect width="418" height="126" rx="16" fill="#FFFFFF" fill-opacity="0.08" stroke="#FFFFFF" stroke-opacity="0.11"/>
    <text x="30" y="47" font-family="Inter, Arial, sans-serif" font-size="22" font-weight="700" fill="#FFFFFF" fill-opacity="0.58">SIGNAL</text>
    <text x="30" y="94" font-family="Inter, Arial, sans-serif" font-size="44" font-weight="900" fill="#63F1B5">VIRAL READY</text>
  </g>
  <g transform="translate(592 836)">
    <rect width="488" height="126" rx="16" fill="#FFFFFF" fill-opacity="0.08" stroke="#FFFFFF" stroke-opacity="0.11"/>
    <text x="30" y="47" font-family="Inter, Arial, sans-serif" font-size="22" font-weight="700" fill="#FFFFFF" fill-opacity="0.58">STACK</text>
    <text x="30" y="94" font-family="Inter, Arial, sans-serif" font-size="42" font-weight="900" fill="#F8D35A">LOCAL MVP</text>
  </g>
</svg>
